<svg width="20" height="22" viewBox="0 0 20 22" fill="none" xmlns="http://www.w3.org/2000/svg">
<path d="M5.80166 14.245C5.63093 14.4167 5.5351 14.6491 5.5351 14.8912C5.5351 15.1334 5.63093 15.3657 5.80166 15.5375C5.88687 15.6234 5.98826 15.6916 6.09996 15.7381C6.21166 15.7847 6.33148 15.8086 6.45249 15.8086C6.5735 15.8086 6.69331 15.7847 6.80502 15.7381C6.91672 15.6916 7.01811 15.6234 7.10332 15.5375C7.27405 15.3657 7.36988 15.1334 7.36988 14.8912C7.36988 14.6491 7.27405 14.4167 7.10332 14.245C7.01811 14.1591 6.91672 14.0909 6.80502 14.0443C6.69331 13.9978 6.5735 13.9738 6.45249 13.9738C6.33148 13.9738 6.21166 13.9978 6.09996 14.0443C5.98826 14.0909 5.88687 14.1591 5.80166 14.245V14.245ZM5.80166 6.46249C5.63093 6.63424 5.5351 6.86657 5.5351 7.10874C5.5351 7.35092 5.63093 7.58325 5.80166 7.75499C5.88687 7.84091 5.98826 7.90911 6.09996 7.95564C6.21166 8.00218 6.33148 8.02614 6.45249 8.02614C6.5735 8.02614 6.69331 8.00218 6.80502 7.95564C6.91672 7.90911 7.01811 7.84091 7.10332 7.75499C7.27405 7.58325 7.36988 7.35092 7.36988 7.10874C7.36988 6.86657 7.27405 6.63424 7.10332 6.46249C7.01811 6.37658 6.91672 6.30838 6.80502 6.26184C6.69331 6.21531 6.5735 6.19135 6.45249 6.19135C6.33148 6.19135 6.21166 6.21531 6.09996 6.26184C5.98826 6.30838 5.88687 6.37658 5.80166 6.46249ZM10.3392 15.6292C10.1579 15.6292 9.98063 15.6829 9.82988 15.7836C9.67914 15.8844 9.56165 16.0275 9.49227 16.195C9.42289 16.3625 9.40473 16.5468 9.4401 16.7247C9.47547 16.9025 9.56278 17.0658 9.69097 17.194C9.81917 17.3222 9.98251 17.4095 10.1603 17.4449C10.3381 17.4803 10.5224 17.4621 10.6899 17.3927C10.8574 17.3233 11.0006 17.2058 11.1013 17.0551C11.2021 16.9044 11.2558 16.7271 11.2558 16.5458C11.262 16.4216 11.2429 16.2975 11.1997 16.1809C11.1564 16.0644 11.0898 15.9578 11.0041 15.8678C10.9183 15.7778 10.8152 15.7061 10.7009 15.6572C10.5866 15.6083 10.4635 15.5832 10.3392 15.5833V15.6292ZM4.83916 10.1292C4.65786 10.1292 4.48063 10.1829 4.32988 10.2836C4.17914 10.3844 4.06165 10.5275 3.99227 10.695C3.92289 10.8625 3.90473 11.0468 3.9401 11.2247C3.97547 11.4025 4.06278 11.5658 4.19097 11.694C4.31917 11.8222 4.48251 11.9095 4.66032 11.9449C4.83814 11.9803 5.02245 11.9621 5.18995 11.8927C5.35745 11.8233 5.50061 11.7058 5.60134 11.5551C5.70206 11.4044 5.75582 11.2271 5.75582 11.0458C5.76204 10.9216 5.74293 10.7975 5.69965 10.6809C5.65638 10.5644 5.58984 10.4578 5.5041 10.3678C5.41835 10.2778 5.31518 10.2061 5.20087 10.1572C5.08656 10.1083 4.96349 10.0832 4.83916 10.0833V10.1292ZM10.3392 4.62916C10.1579 4.62916 9.98063 4.68292 9.82988 4.78365C9.67914 4.88437 9.56165 5.02754 9.49227 5.19503C9.42289 5.36253 9.40473 5.54685 9.4401 5.72466C9.47547 5.90248 9.56278 6.06581 9.69097 6.19401C9.81917 6.32221 9.98251 6.40951 10.1603 6.44488C10.3381 6.48025 10.5224 6.4621 10.6899 6.39272C10.8574 6.32334 11.0006 6.20585 11.1013 6.0551C11.2021 5.90436 11.2558 5.72713 11.2558 5.54583C11.262 5.42165 11.2429 5.2975 11.1997 5.18094C11.1564 5.06438 11.0898 4.95785 11.0041 4.86781C10.9183 4.77778 10.8152 4.70612 10.7009 4.65722C10.5866 4.60831 10.4635 4.58317 10.3392 4.58333V4.62916ZM13.5842 6.50833C13.4554 6.63631 13.3676 6.79963 13.3318 6.9776C13.2959 7.15556 13.3138 7.34015 13.383 7.50797C13.4522 7.67578 13.5697 7.81927 13.7206 7.92024C13.8714 8.0212 14.0489 8.0751 14.2304 8.0751C14.4119 8.0751 14.5894 8.0212 14.7402 7.92024C14.8911 7.81927 15.0086 7.67578 15.0778 7.50797C15.147 7.34015 15.1649 7.15556 15.1291 6.9776C15.0932 6.79963 15.0054 6.63631 14.8767 6.50833C14.711 6.33137 14.4821 6.2272 14.2399 6.21861C13.9976 6.21003 13.7619 6.29771 13.5842 6.46249V6.50833ZM19.3592 6.50833C18.5211 4.83293 17.2329 3.42413 15.6389 2.43989C14.045 1.45565 12.2084 0.934887 10.3351 0.936006C8.46181 0.937126 6.62585 1.46008 5.03311 2.44622C3.44037 3.43237 2.15383 4.84271 1.31776 6.51911C0.481695 8.1955 0.129157 10.0717 0.299679 11.9372C0.470202 13.8027 1.15704 15.5839 2.28318 17.0809C3.40932 18.578 4.93023 19.7317 6.67537 20.4127C8.4205 21.0938 10.3208 21.2752 12.1633 20.9367C12.6266 20.8495 13.0679 20.6708 13.4614 20.4111C13.8549 20.1514 14.1927 19.8159 14.455 19.4242C14.7376 18.9983 14.9327 18.5204 15.0287 18.0183C15.1247 17.5163 15.1197 17.0001 15.0142 16.5C14.9564 16.1978 14.9258 15.891 14.9225 15.5833C14.9265 14.695 15.1886 13.8271 15.6768 13.085C16.165 12.3429 16.8584 11.7586 17.6725 11.4033C18.1115 11.2068 18.5055 10.9224 18.8303 10.5676C19.155 10.2129 19.4037 9.79538 19.5608 9.34083C19.7198 8.87634 19.7838 8.38466 19.7492 7.89495C19.7145 7.40525 19.5819 6.92748 19.3592 6.48999V6.50833ZM17.8008 8.74499C17.7226 8.96437 17.6012 9.16583 17.4437 9.33745C17.2863 9.50907 17.096 9.64737 16.8842 9.74416C15.7566 10.2489 14.7988 11.0683 14.1256 12.1041C13.4524 13.1399 13.0925 14.348 13.0892 15.5833C13.0905 16.0142 13.1335 16.444 13.2175 16.8667C13.2735 17.125 13.2772 17.3919 13.2284 17.6517C13.1796 17.9114 13.0792 18.1588 12.9333 18.3792C12.8099 18.572 12.6474 18.7369 12.4564 18.8632C12.2653 18.9895 12.05 19.0744 11.8242 19.1125C11.3345 19.2045 10.8374 19.2505 10.3392 19.25C9.23381 19.2505 8.13963 19.0289 7.12159 18.5984C6.10354 18.1678 5.18241 17.5371 4.41287 16.7436C3.64333 15.9501 3.0411 15.0101 2.64192 13.9793C2.24274 12.9486 2.05477 11.8481 2.08915 10.7433C2.1603 8.68339 2.99574 6.7237 4.43273 5.24604C5.86972 3.76838 7.80534 2.87859 9.86249 2.74999H10.33C11.8661 2.75038 13.3716 3.17962 14.6769 3.98939C15.9823 4.79915 17.0356 5.95727 17.7183 7.33333C17.9285 7.76873 17.9581 8.26951 17.8008 8.72666V8.74499ZM10.3392 10.0833C10.1579 10.0833 9.98063 10.1371 9.82988 10.2378C9.67914 10.3385 9.56165 10.4817 9.49227 10.6492C9.42289 10.8167 9.40473 11.001 9.4401 11.1788C9.47547 11.3566 9.56278 11.52 9.69097 11.6482C9.81917 11.7764 9.98251 11.8637 10.1603 11.899C10.3381 11.9344 10.5224 11.9163 10.6899 11.8469C10.8574 11.7775 11.0006 11.66 11.1013 11.5093C11.2021 11.3585 11.2558 11.1813 11.2558 11C11.2558 10.7569 11.1592 10.5237 10.9873 10.3518C10.8154 10.1799 10.5823 10.0833 10.3392 10.0833Z" fill="#006AFF"/>
</svg>
